<svg width="29" height="32" viewBox="0 0 29 32" fill="none" xmlns="http://www.w3.org/2000/svg">
<path d="M14.5 12.0884L8.55128 12.0884C7.93527 12.0884 7.4359 11.5814 7.4359 10.9559C7.4359 10.3305 7.93527 9.82345 8.55128 9.82345H14.5C15.116 9.82345 15.6154 10.3305 15.6154 10.9559C15.6154 11.5814 15.116 12.0884 14.5 12.0884Z" fill="#090909"/>
<path d="M7.4359 16.9958C7.4359 16.3703 7.93527 15.8633 8.55128 15.8633H20.4487C21.0647 15.8633 21.5641 16.3703 21.5641 16.9958C21.5641 17.6212 21.0647 18.1283 20.4487 18.1283H8.55128C7.93527 18.1283 7.4359 17.6212 7.4359 16.9958Z" fill="#090909"/>
<path fill-rule="evenodd" clip-rule="evenodd" d="M12.9629 0.763672H16.0371C18.0771 0.763665 19.6764 0.763659 20.9619 0.870293C22.2708 0.978875 23.3522 1.20364 24.3309 1.70999C25.9399 2.54239 27.2481 3.87061 28.068 5.50429C28.5667 6.49804 28.788 7.59595 28.895 8.92493C29 10.2301 29 11.8539 29 13.9252V18.0878C29 18.4751 29 18.7108 28.9904 18.9163C28.7819 23.3887 25.258 26.9666 20.8531 27.1783C20.6507 27.1881 20.395 27.188 19.9711 27.188H19.9287L19.8168 27.1882C18.5271 27.1966 17.2708 27.6053 16.2166 28.3596L16.1435 28.4124L12.2609 31.2282C10.0234 32.8509 7.08326 30.5075 8.10445 27.9154C8.2417 27.567 7.989 27.188 7.61943 27.188H6.72451C3.01067 27.188 2.89186e-07 24.1312 2.89186e-07 20.3605L1.119e-07 13.9252C-6.80224e-06 11.8539 -1.22105e-05 10.2301 0.105013 8.92493C0.211956 7.59595 0.433332 6.49804 0.932034 5.50429C1.75187 3.87061 3.06005 2.54239 4.66908 1.70999C5.64784 1.20364 6.72918 0.978875 8.03811 0.870293C9.32355 0.763659 10.9229 0.763665 12.9629 0.763672ZM8.21977 3.12772C7.04879 3.22486 6.2937 3.41153 5.68183 3.72807C4.49255 4.34332 3.52563 5.32505 2.91966 6.53255C2.6079 7.15379 2.42405 7.92045 2.32837 9.10937C2.23164 10.3115 2.23077 11.843 2.23077 13.9759V20.3605C2.23077 22.8804 4.24269 24.9231 6.72451 24.9231H7.61943C9.56719 24.9231 10.899 26.9204 10.1757 28.7566C9.98191 29.2484 10.5398 29.693 10.9643 29.3851L14.8469 26.5693L14.9316 26.5081C16.358 25.4877 18.0577 24.9346 19.8026 24.9233L19.9287 24.9231C20.4072 24.9231 20.6052 24.9228 20.7476 24.9159C24.0034 24.7594 26.608 22.1149 26.7622 18.8092C26.7689 18.6643 26.7692 18.4862 26.7692 18.051V13.9759C26.7692 11.843 26.7684 10.3115 26.6716 9.10937C26.576 7.92045 26.3921 7.15379 26.0803 6.53255C25.4744 5.32505 24.5075 4.34332 23.3182 3.72807C22.7063 3.41153 21.9512 3.22486 20.7802 3.12772C19.5962 3.0295 18.0878 3.02862 15.9872 3.02862H13.0128C10.9122 3.02862 9.40376 3.0295 8.21977 3.12772Z" fill="#090909"/>
</svg>
