<svg width="41" height="53" viewBox="0 0 41 53" fill="none" xmlns="http://www.w3.org/2000/svg">
<path d="M39 11.7476H40.4058V11.1272L39.9474 10.709L39 11.7476ZM28.3154 2L29.2628 0.96148C29.0039 0.725215 28.666 0.594237 28.3154 0.594237V2ZM26.6668 3.225V1.81924C25.8905 1.81924 25.2611 2.44862 25.2611 3.225H26.6668ZM37.1502 3.225H38.556C38.556 2.44862 37.9266 1.81924 37.1502 1.81924V3.225ZM37.1502 13.6375V15.0433C37.9266 15.0433 38.556 14.4139 38.556 13.6375H37.1502ZM24.6113 41.3808C25.3877 41.3808 26.017 40.7514 26.017 39.975C26.017 39.1986 25.3877 38.5692 24.6113 38.5692V41.3808ZM13.1001 38.5692C12.3237 38.5692 11.6943 39.1986 11.6943 39.975C11.6943 40.7514 12.3237 41.3808 13.1001 41.3808V38.5692ZM27.9002 38.1141C28.6766 38.1141 29.3059 37.4847 29.3059 36.7083C29.3059 35.9319 28.6766 35.3026 27.9002 35.3026V38.1141ZM13.1001 35.3026C12.3237 35.3026 11.6943 35.9319 11.6943 36.7083C11.6943 37.4847 12.3237 38.1141 13.1001 38.1141V35.3026ZM24.6113 34.8474C25.3877 34.8474 26.017 34.218 26.017 33.4417C26.017 32.6653 25.3877 32.0359 24.6113 32.0359V34.8474ZM13.1001 32.0359C12.3237 32.0359 11.6943 32.6653 11.6943 33.4417C11.6943 34.218 12.3237 34.8474 13.1001 34.8474V32.0359ZM27.9002 31.5808C28.6766 31.5808 29.3059 30.9514 29.3059 30.175C29.3059 29.3986 28.6766 28.7692 27.9002 28.7692V31.5808ZM13.1001 28.7692C12.3237 28.7692 11.6943 29.3986 11.6943 30.175C11.6943 30.9514 12.3237 31.5808 13.1001 31.5808V28.7692ZM37.5942 11.7476V46.1H40.4058V11.7476H37.5942ZM34.0666 49.5942H6.93336V52.4058H34.0666V49.5942ZM3.40576 46.1V6.9H0.594237V46.1H3.40576ZM6.93336 3.40576H28.3154V0.594237H6.93336V3.40576ZM27.368 3.03852L38.0526 12.7861L39.9474 10.709L29.2628 0.96148L27.368 3.03852ZM3.40576 6.9C3.40576 4.97917 4.97612 3.40576 6.93336 3.40576V0.594237C3.44137 0.594237 0.594237 3.40845 0.594237 6.9H3.40576ZM6.93336 49.5942C4.97611 49.5942 3.40576 48.0208 3.40576 46.1H0.594237C0.594237 49.5916 3.44137 52.4058 6.93336 52.4058V49.5942ZM37.5942 46.1C37.5942 48.0208 36.0239 49.5942 34.0666 49.5942V52.4058C37.5586 52.4058 40.4058 49.5915 40.4058 46.1H37.5942ZM26.6668 4.63076H37.1502V1.81924H26.6668V4.63076ZM35.7445 3.225V13.6375H38.556V3.225H35.7445ZM37.1502 12.2317H27.9002V15.0433H37.1502V12.2317ZM28.0726 12.4125V3.225H25.2611V12.4125H28.0726ZM27.9002 12.2317C27.9864 12.2317 28.0726 12.3037 28.0726 12.4125H25.2611C25.2611 13.8744 26.4517 15.0433 27.9002 15.0433V12.2317ZM24.6113 38.5692H13.1001V41.3808H24.6113V38.5692ZM27.9002 35.3026H13.1001V38.1141H27.9002V35.3026ZM24.6113 32.0359H13.1001V34.8474H24.6113V32.0359ZM27.9002 28.7692H13.1001V31.5808H27.9002V28.7692Z" fill="#3369FF"/>
</svg>
