<svg width="52" height="52" viewBox="0 0 52 52" fill="none" xmlns="http://www.w3.org/2000/svg">
<path d="M43.1983 16.1116L18.945 3.98489C2.65335 -4.17511 -4.03332 2.51156 4.12668 18.8032L6.59168 23.7332C7.30001 25.1782 7.30001 26.8499 6.59168 28.2949L4.12668 33.1966C-4.03332 49.4882 2.62501 56.1749 18.945 48.0149L43.1983 35.8882C54.0783 30.4482 54.0783 21.5516 43.1983 16.1116ZM34.0467 28.1249H18.7467C17.585 28.1249 16.6217 27.1616 16.6217 25.9999C16.6217 24.8382 17.585 23.8749 18.7467 23.8749H34.0467C35.2083 23.8749 36.1717 24.8382 36.1717 25.9999C36.1717 27.1616 35.2083 28.1249 34.0467 28.1249Z" fill="#3369FF"/>
</svg>
