<svg width="119" height="119" viewBox="0 0 119 119" fill="none" xmlns="http://www.w3.org/2000/svg">
<path d="M105.144 36.0007L102.717 31.7891C100.882 28.604 99.9647 27.0114 98.4031 26.3763C96.8416 25.7413 95.0755 26.2424 91.5439 27.2446L85.5446 28.9344C83.2898 29.4544 80.9239 29.1594 78.8653 28.1016L77.2089 27.146C75.4433 26.0152 74.0853 24.3479 73.3335 22.3882L71.6919 17.4844C70.6122 14.2393 70.0723 12.6168 68.7871 11.6887C67.5024 10.7606 65.7953 10.7606 62.3812 10.7606H56.9001C53.4864 10.7606 51.7794 10.7606 50.4941 11.6887C49.2092 12.6168 48.6694 14.2393 47.5898 17.4844L45.9478 22.3882C45.1962 24.3479 43.8382 26.0152 42.0727 27.146L40.4164 28.1016C38.3575 29.1594 35.9919 29.4544 33.7371 28.9344L27.7376 27.2446C24.2058 26.2424 22.4399 25.7413 20.8785 26.3763C19.317 27.0114 18.3994 28.604 16.564 31.7891L14.1372 36.0007C12.4168 38.9864 11.5566 40.4792 11.7236 42.0684C11.8905 43.6576 13.0421 44.9382 15.3452 47.4995L20.4145 53.1668C21.6535 54.7352 22.5331 57.4689 22.5331 59.9268C22.5331 62.3856 21.6538 65.1183 20.4146 66.6872L15.3452 72.3546C13.0421 74.9162 11.8905 76.1965 11.7236 77.7861C11.5566 79.3751 12.4168 80.8678 14.1372 83.8532L16.5639 88.0648C18.3993 91.2498 19.317 92.8429 20.8785 93.4776C22.4399 94.1128 24.2058 93.6118 27.7377 92.6093L33.7369 90.9195C35.9921 90.3993 38.3582 90.6948 40.4173 91.7528L42.0734 92.7086C43.8385 93.8395 45.1961 95.5062 45.9477 97.466L47.5898 102.37C48.6694 105.615 49.2092 107.238 50.4941 108.166C51.7794 109.094 53.4864 109.094 56.9001 109.094H62.3812C65.7953 109.094 67.5024 109.094 68.7871 108.166C70.0723 107.238 70.6122 105.615 71.6919 102.37L73.334 97.466C74.0853 95.5062 75.4428 93.8395 77.2084 92.7086L78.8643 91.7528C80.9234 90.6948 83.2893 90.3993 85.5446 90.9195L91.5439 92.6093C95.0755 93.6118 96.8416 94.1128 98.4031 93.4776C99.9647 92.8429 100.882 91.2498 102.717 88.0648L105.144 83.8532C106.865 80.8678 107.725 79.3751 107.558 77.7861C107.391 76.1965 106.239 74.9162 103.936 72.3546L98.8668 66.6872C97.6278 65.1183 96.7482 62.3856 96.7482 59.9268C96.7482 57.4689 97.6283 54.7352 98.8668 53.1668L103.936 47.4995C106.239 44.9382 107.391 43.6576 107.558 42.0684C107.725 40.4792 106.865 38.9864 105.144 36.0007Z" stroke="#163300" stroke-width="8.5" stroke-linecap="round"/>
<path d="M76.6376 59.8889C76.6376 69.3928 68.9332 77.0972 59.4293 77.0972C49.9253 77.0972 42.2211 69.3928 42.2211 59.8889C42.2211 50.385 49.9253 42.6806 59.4293 42.6806C68.9332 42.6806 76.6376 50.385 76.6376 59.8889Z" stroke="#163300" stroke-width="8.5"/>
</svg>
